<mxfile host="app.diagrams.net" modified="2022-01-03T10:02:52.177Z" agent="5.0 (Windows NT 6.1; Win64; x64) AppleWebKit/537.36 (KHTML, like Gecko) Chrome/96.0.4664.110 Safari/537.36" etag="W1p_r0eUr72iqVEripFI" version="16.1.2" type="github">
  <diagram id="dqWJYfsdwivpEV-MMZth" name="第 1 页">
    <mxGraphModel dx="446" dy="1910" grid="1" gridSize="10" guides="1" tooltips="1" connect="1" arrows="1" fold="1" page="1" pageScale="1" pageWidth="827" pageHeight="1169" background="#ffffff" math="0" shadow="0">
      <root>
        <mxCell id="0" />
        <mxCell id="1" parent="0" />
        <mxCell id="wx2qx-JsSSp1wpRwgON2-41" value="1" style="rounded=0;whiteSpace=wrap;html=1;shadow=1;sketch=1;glass=0;" parent="1" vertex="1">
          <mxGeometry x="420" y="120" width="40" height="40" as="geometry" />
        </mxCell>
        <mxCell id="wx2qx-JsSSp1wpRwgON2-42" value="0" style="rounded=0;whiteSpace=wrap;html=1;shadow=1;sketch=1;glass=0;" parent="1" vertex="1">
          <mxGeometry x="460" y="120" width="40" height="40" as="geometry" />
        </mxCell>
        <mxCell id="wx2qx-JsSSp1wpRwgON2-43" value="1" style="rounded=0;whiteSpace=wrap;html=1;shadow=1;sketch=1;glass=0;" parent="1" vertex="1">
          <mxGeometry x="500" y="120" width="40" height="40" as="geometry" />
        </mxCell>
        <mxCell id="wx2qx-JsSSp1wpRwgON2-44" value="1" style="rounded=0;whiteSpace=wrap;html=1;shadow=1;sketch=1;glass=0;" parent="1" vertex="1">
          <mxGeometry x="420" y="160" width="40" height="40" as="geometry" />
        </mxCell>
        <mxCell id="wx2qx-JsSSp1wpRwgON2-45" value="0" style="rounded=0;whiteSpace=wrap;html=1;shadow=1;sketch=1;glass=0;" parent="1" vertex="1">
          <mxGeometry x="460" y="160" width="40" height="40" as="geometry" />
        </mxCell>
        <mxCell id="wx2qx-JsSSp1wpRwgON2-46" value="1" style="rounded=0;whiteSpace=wrap;html=1;shadow=1;sketch=1;glass=0;" parent="1" vertex="1">
          <mxGeometry x="500" y="160" width="40" height="40" as="geometry" />
        </mxCell>
        <mxCell id="wx2qx-JsSSp1wpRwgON2-47" value="1" style="rounded=0;whiteSpace=wrap;html=1;shadow=1;sketch=1;glass=0;" parent="1" vertex="1">
          <mxGeometry x="420" y="200" width="40" height="40" as="geometry" />
        </mxCell>
        <mxCell id="wx2qx-JsSSp1wpRwgON2-48" value="1" style="rounded=0;whiteSpace=wrap;html=1;shadow=1;sketch=1;glass=0;" parent="1" vertex="1">
          <mxGeometry x="460" y="200" width="40" height="40" as="geometry" />
        </mxCell>
        <mxCell id="wx2qx-JsSSp1wpRwgON2-49" value="1" style="rounded=0;whiteSpace=wrap;html=1;shadow=1;sketch=1;glass=0;" parent="1" vertex="1">
          <mxGeometry x="500" y="200" width="40" height="40" as="geometry" />
        </mxCell>
        <mxCell id="wx2qx-JsSSp1wpRwgON2-50" value="0" style="rounded=0;whiteSpace=wrap;html=1;shadow=1;sketch=1;glass=0;" parent="1" vertex="1">
          <mxGeometry x="540" y="120" width="40" height="40" as="geometry" />
        </mxCell>
        <mxCell id="wx2qx-JsSSp1wpRwgON2-51" value="1" style="rounded=0;whiteSpace=wrap;html=1;shadow=1;sketch=1;glass=0;" parent="1" vertex="1">
          <mxGeometry x="540" y="160" width="40" height="40" as="geometry" />
        </mxCell>
        <mxCell id="wx2qx-JsSSp1wpRwgON2-52" value="1" style="rounded=0;whiteSpace=wrap;html=1;shadow=1;sketch=1;glass=0;" parent="1" vertex="1">
          <mxGeometry x="540" y="200" width="40" height="40" as="geometry" />
        </mxCell>
        <mxCell id="wx2qx-JsSSp1wpRwgON2-53" value="1" style="rounded=0;whiteSpace=wrap;html=1;shadow=1;sketch=1;glass=0;" parent="1" vertex="1">
          <mxGeometry x="420" y="240" width="40" height="40" as="geometry" />
        </mxCell>
        <mxCell id="wx2qx-JsSSp1wpRwgON2-54" value="0" style="rounded=0;whiteSpace=wrap;html=1;shadow=1;sketch=1;glass=0;" parent="1" vertex="1">
          <mxGeometry x="460" y="240" width="40" height="40" as="geometry" />
        </mxCell>
        <mxCell id="wx2qx-JsSSp1wpRwgON2-55" value="1" style="rounded=0;whiteSpace=wrap;html=1;shadow=1;sketch=1;glass=0;" parent="1" vertex="1">
          <mxGeometry x="500" y="240" width="40" height="40" as="geometry" />
        </mxCell>
        <mxCell id="wx2qx-JsSSp1wpRwgON2-56" value="1" style="rounded=0;whiteSpace=wrap;html=1;shadow=1;sketch=1;glass=0;" parent="1" vertex="1">
          <mxGeometry x="540" y="240" width="40" height="40" as="geometry" />
        </mxCell>
        <mxCell id="wx2qx-JsSSp1wpRwgON2-57" value="0" style="rounded=0;whiteSpace=wrap;html=1;shadow=1;sketch=1;glass=0;" parent="1" vertex="1">
          <mxGeometry x="580" y="120" width="40" height="40" as="geometry" />
        </mxCell>
        <mxCell id="wx2qx-JsSSp1wpRwgON2-58" value="1" style="rounded=0;whiteSpace=wrap;html=1;shadow=1;sketch=1;glass=0;" parent="1" vertex="1">
          <mxGeometry x="580" y="160" width="40" height="40" as="geometry" />
        </mxCell>
        <mxCell id="wx2qx-JsSSp1wpRwgON2-59" value="1" style="rounded=0;whiteSpace=wrap;html=1;shadow=1;sketch=1;glass=0;" parent="1" vertex="1">
          <mxGeometry x="580" y="200" width="40" height="40" as="geometry" />
        </mxCell>
        <mxCell id="wx2qx-JsSSp1wpRwgON2-63" value="1" style="rounded=0;whiteSpace=wrap;html=1;shadow=1;sketch=1;glass=0;" parent="1" vertex="1">
          <mxGeometry x="580" y="240" width="40" height="40" as="geometry" />
        </mxCell>
        <mxCell id="wx2qx-JsSSp1wpRwgON2-75" value="1" style="rounded=0;whiteSpace=wrap;html=1;shadow=1;sketch=1;glass=0;fillColor=#f8cecc;gradientColor=#ea6b66;strokeColor=#b85450;" parent="1" vertex="1">
          <mxGeometry x="160" y="400" width="40" height="40" as="geometry" />
        </mxCell>
        <mxCell id="wx2qx-JsSSp1wpRwgON2-76" value="0" style="rounded=0;whiteSpace=wrap;html=1;shadow=1;sketch=1;glass=0;fillColor=#f8cecc;gradientColor=#ea6b66;strokeColor=#b85450;" parent="1" vertex="1">
          <mxGeometry x="200" y="400" width="40" height="40" as="geometry" />
        </mxCell>
        <mxCell id="wx2qx-JsSSp1wpRwgON2-77" value="1" style="rounded=0;whiteSpace=wrap;html=1;shadow=1;sketch=1;glass=0;fillColor=#f8cecc;gradientColor=#ea6b66;strokeColor=#b85450;" parent="1" vertex="1">
          <mxGeometry x="240" y="400" width="40" height="40" as="geometry" />
        </mxCell>
        <mxCell id="wx2qx-JsSSp1wpRwgON2-78" value="1" style="rounded=0;whiteSpace=wrap;html=1;shadow=1;sketch=1;glass=0;fillColor=#f8cecc;gradientColor=#ea6b66;strokeColor=#b85450;" parent="1" vertex="1">
          <mxGeometry x="160" y="440" width="40" height="40" as="geometry" />
        </mxCell>
        <mxCell id="wx2qx-JsSSp1wpRwgON2-79" value="0" style="rounded=0;whiteSpace=wrap;html=1;shadow=1;sketch=1;glass=0;fillColor=#f8cecc;gradientColor=#ea6b66;strokeColor=#b85450;" parent="1" vertex="1">
          <mxGeometry x="200" y="440" width="40" height="40" as="geometry" />
        </mxCell>
        <mxCell id="wx2qx-JsSSp1wpRwgON2-80" value="1" style="rounded=0;whiteSpace=wrap;html=1;shadow=1;sketch=1;glass=0;fillColor=#fff2cc;gradientColor=#ffd966;strokeColor=#d6b656;" parent="1" vertex="1">
          <mxGeometry x="240" y="440" width="40" height="40" as="geometry" />
        </mxCell>
        <mxCell id="wx2qx-JsSSp1wpRwgON2-81" value="1" style="rounded=0;whiteSpace=wrap;html=1;shadow=1;sketch=1;glass=0;fillColor=#f8cecc;gradientColor=#ea6b66;strokeColor=#b85450;" parent="1" vertex="1">
          <mxGeometry x="160" y="480" width="40" height="40" as="geometry" />
        </mxCell>
        <mxCell id="wx2qx-JsSSp1wpRwgON2-82" value="1" style="rounded=0;whiteSpace=wrap;html=1;shadow=1;sketch=1;glass=0;fillColor=#f8cecc;gradientColor=#ea6b66;strokeColor=#b85450;" parent="1" vertex="1">
          <mxGeometry x="200" y="480" width="40" height="40" as="geometry" />
        </mxCell>
        <mxCell id="wx2qx-JsSSp1wpRwgON2-83" value="1" style="rounded=0;whiteSpace=wrap;html=1;shadow=1;sketch=1;glass=0;fillColor=#fff2cc;gradientColor=#ffd966;strokeColor=#d6b656;" parent="1" vertex="1">
          <mxGeometry x="240" y="480" width="40" height="40" as="geometry" />
        </mxCell>
        <mxCell id="wx2qx-JsSSp1wpRwgON2-84" value="0" style="rounded=0;whiteSpace=wrap;html=1;shadow=1;sketch=1;glass=0;fillColor=#f8cecc;gradientColor=#ea6b66;strokeColor=#b85450;" parent="1" vertex="1">
          <mxGeometry x="280" y="400" width="40" height="40" as="geometry" />
        </mxCell>
        <mxCell id="wx2qx-JsSSp1wpRwgON2-85" value="1" style="rounded=0;whiteSpace=wrap;html=1;shadow=1;sketch=1;glass=0;fillColor=#fff2cc;gradientColor=#ffd966;strokeColor=#d6b656;" parent="1" vertex="1">
          <mxGeometry x="280" y="440" width="40" height="40" as="geometry" />
        </mxCell>
        <mxCell id="wx2qx-JsSSp1wpRwgON2-86" value="2" style="rounded=0;whiteSpace=wrap;html=1;shadow=1;sketch=1;glass=0;fillColor=#f5f5f5;gradientColor=#b3b3b3;strokeColor=#666666;" parent="1" vertex="1">
          <mxGeometry x="280" y="480" width="40" height="40" as="geometry" />
        </mxCell>
        <mxCell id="wx2qx-JsSSp1wpRwgON2-87" value="1" style="rounded=0;whiteSpace=wrap;html=1;shadow=1;sketch=1;glass=0;fillColor=#f8cecc;gradientColor=#ea6b66;strokeColor=#b85450;" parent="1" vertex="1">
          <mxGeometry x="160" y="520" width="40" height="40" as="geometry" />
        </mxCell>
        <mxCell id="wx2qx-JsSSp1wpRwgON2-88" value="0" style="rounded=0;whiteSpace=wrap;html=1;shadow=1;sketch=1;glass=0;fillColor=#f8cecc;gradientColor=#ea6b66;strokeColor=#b85450;" parent="1" vertex="1">
          <mxGeometry x="200" y="520" width="40" height="40" as="geometry" />
        </mxCell>
        <mxCell id="wx2qx-JsSSp1wpRwgON2-89" value="1" style="rounded=0;whiteSpace=wrap;html=1;shadow=1;sketch=1;glass=0;fillColor=#f8cecc;gradientColor=#ea6b66;strokeColor=#b85450;" parent="1" vertex="1">
          <mxGeometry x="240" y="520" width="40" height="40" as="geometry" />
        </mxCell>
        <mxCell id="wx2qx-JsSSp1wpRwgON2-90" value="2" style="rounded=0;whiteSpace=wrap;html=1;shadow=1;sketch=1;glass=0;fillColor=#f8cecc;gradientColor=#ea6b66;strokeColor=#b85450;" parent="1" vertex="1">
          <mxGeometry x="280" y="520" width="40" height="40" as="geometry" />
        </mxCell>
        <mxCell id="wx2qx-JsSSp1wpRwgON2-91" value="0" style="rounded=0;whiteSpace=wrap;html=1;shadow=1;sketch=1;glass=0;fillColor=#f8cecc;gradientColor=#ea6b66;strokeColor=#b85450;" parent="1" vertex="1">
          <mxGeometry x="320" y="400" width="40" height="40" as="geometry" />
        </mxCell>
        <mxCell id="wx2qx-JsSSp1wpRwgON2-92" value="1" style="rounded=0;whiteSpace=wrap;html=1;shadow=1;sketch=1;glass=0;fillColor=#f8cecc;gradientColor=#ea6b66;strokeColor=#b85450;" parent="1" vertex="1">
          <mxGeometry x="320" y="440" width="40" height="40" as="geometry" />
        </mxCell>
        <mxCell id="wx2qx-JsSSp1wpRwgON2-93" value="2" style="rounded=0;whiteSpace=wrap;html=1;shadow=1;sketch=1;glass=0;fillColor=#f8cecc;gradientColor=#ea6b66;strokeColor=#b85450;" parent="1" vertex="1">
          <mxGeometry x="320" y="480" width="40" height="40" as="geometry" />
        </mxCell>
        <mxCell id="wx2qx-JsSSp1wpRwgON2-94" value="3" style="rounded=0;whiteSpace=wrap;html=1;shadow=1;sketch=1;glass=0;fillColor=#f8cecc;gradientColor=#ea6b66;strokeColor=#b85450;" parent="1" vertex="1">
          <mxGeometry x="320" y="520" width="40" height="40" as="geometry" />
        </mxCell>
        <mxCell id="wx2qx-JsSSp1wpRwgON2-95" value="0" style="rounded=0;whiteSpace=wrap;html=1;shadow=1;sketch=1;glass=0;fillColor=#d5e8d4;gradientColor=#97d077;strokeColor=#82b366;" parent="1" vertex="1">
          <mxGeometry x="160" y="360" width="40" height="40" as="geometry" />
        </mxCell>
        <mxCell id="wx2qx-JsSSp1wpRwgON2-96" value="0" style="rounded=0;whiteSpace=wrap;html=1;shadow=1;sketch=1;glass=0;fillColor=#d5e8d4;gradientColor=#97d077;strokeColor=#82b366;" parent="1" vertex="1">
          <mxGeometry x="200" y="360" width="40" height="40" as="geometry" />
        </mxCell>
        <mxCell id="wx2qx-JsSSp1wpRwgON2-97" value="0" style="rounded=0;whiteSpace=wrap;html=1;shadow=1;sketch=1;glass=0;fillColor=#d5e8d4;gradientColor=#97d077;strokeColor=#82b366;" parent="1" vertex="1">
          <mxGeometry x="240" y="360" width="40" height="40" as="geometry" />
        </mxCell>
        <mxCell id="wx2qx-JsSSp1wpRwgON2-98" value="0" style="rounded=0;whiteSpace=wrap;html=1;shadow=1;sketch=1;glass=0;fillColor=#d5e8d4;gradientColor=#97d077;strokeColor=#82b366;" parent="1" vertex="1">
          <mxGeometry x="280" y="360" width="40" height="40" as="geometry" />
        </mxCell>
        <mxCell id="wx2qx-JsSSp1wpRwgON2-99" value="0" style="rounded=0;whiteSpace=wrap;html=1;shadow=1;sketch=1;glass=0;fillColor=#d5e8d4;gradientColor=#97d077;strokeColor=#82b366;" parent="1" vertex="1">
          <mxGeometry x="320" y="360" width="40" height="40" as="geometry" />
        </mxCell>
        <mxCell id="wx2qx-JsSSp1wpRwgON2-100" value="0" style="rounded=0;whiteSpace=wrap;html=1;shadow=1;sketch=1;glass=0;fillColor=#d5e8d4;gradientColor=#97d077;strokeColor=#82b366;" parent="1" vertex="1">
          <mxGeometry x="120" y="400" width="40" height="40" as="geometry" />
        </mxCell>
        <mxCell id="wx2qx-JsSSp1wpRwgON2-101" value="0" style="rounded=0;whiteSpace=wrap;html=1;shadow=1;sketch=1;glass=0;fillColor=#d5e8d4;gradientColor=#97d077;strokeColor=#82b366;" parent="1" vertex="1">
          <mxGeometry x="120" y="440" width="40" height="40" as="geometry" />
        </mxCell>
        <mxCell id="wx2qx-JsSSp1wpRwgON2-102" value="0" style="rounded=0;whiteSpace=wrap;html=1;shadow=1;sketch=1;glass=0;fillColor=#d5e8d4;gradientColor=#97d077;strokeColor=#82b366;" parent="1" vertex="1">
          <mxGeometry x="120" y="480" width="40" height="40" as="geometry" />
        </mxCell>
        <mxCell id="wx2qx-JsSSp1wpRwgON2-103" value="0" style="rounded=0;whiteSpace=wrap;html=1;shadow=1;sketch=1;glass=0;fillColor=#d5e8d4;gradientColor=#97d077;strokeColor=#82b366;" parent="1" vertex="1">
          <mxGeometry x="120" y="520" width="40" height="40" as="geometry" />
        </mxCell>
        <mxCell id="wx2qx-JsSSp1wpRwgON2-104" value="0" style="rounded=0;whiteSpace=wrap;html=1;shadow=1;sketch=1;glass=0;fillColor=#d5e8d4;gradientColor=#97d077;strokeColor=#82b366;" parent="1" vertex="1">
          <mxGeometry x="120" y="360" width="40" height="40" as="geometry" />
        </mxCell>
        <mxCell id="wx2qx-JsSSp1wpRwgON2-106" value="1" style="rounded=0;whiteSpace=wrap;html=1;shadow=1;sketch=1;glass=0;fillColor=#f8cecc;gradientColor=#ea6b66;strokeColor=#b85450;" parent="1" vertex="1">
          <mxGeometry x="440" y="400" width="40" height="40" as="geometry" />
        </mxCell>
        <mxCell id="wx2qx-JsSSp1wpRwgON2-107" value="0" style="rounded=0;whiteSpace=wrap;html=1;shadow=1;sketch=1;glass=0;fillColor=#f8cecc;gradientColor=#ea6b66;strokeColor=#b85450;" parent="1" vertex="1">
          <mxGeometry x="480" y="400" width="40" height="40" as="geometry" />
        </mxCell>
        <mxCell id="wx2qx-JsSSp1wpRwgON2-108" value="1" style="rounded=0;whiteSpace=wrap;html=1;shadow=1;sketch=1;glass=0;fillColor=#f8cecc;gradientColor=#ea6b66;strokeColor=#b85450;" parent="1" vertex="1">
          <mxGeometry x="520" y="400" width="40" height="40" as="geometry" />
        </mxCell>
        <mxCell id="wx2qx-JsSSp1wpRwgON2-109" value="1" style="rounded=0;whiteSpace=wrap;html=1;shadow=1;sketch=1;glass=0;fillColor=#f8cecc;gradientColor=#ea6b66;strokeColor=#b85450;" parent="1" vertex="1">
          <mxGeometry x="440" y="440" width="40" height="40" as="geometry" />
        </mxCell>
        <mxCell id="wx2qx-JsSSp1wpRwgON2-110" value="0" style="rounded=0;whiteSpace=wrap;html=1;shadow=1;sketch=1;glass=0;fillColor=#f8cecc;gradientColor=#ea6b66;strokeColor=#b85450;" parent="1" vertex="1">
          <mxGeometry x="480" y="440" width="40" height="40" as="geometry" />
        </mxCell>
        <mxCell id="wx2qx-JsSSp1wpRwgON2-111" value="1" style="rounded=0;whiteSpace=wrap;html=1;shadow=1;sketch=1;glass=0;fillColor=#f8cecc;gradientColor=#ea6b66;strokeColor=#b85450;" parent="1" vertex="1">
          <mxGeometry x="520" y="440" width="40" height="40" as="geometry" />
        </mxCell>
        <mxCell id="wx2qx-JsSSp1wpRwgON2-112" value="1" style="rounded=0;whiteSpace=wrap;html=1;shadow=1;sketch=1;glass=0;fillColor=#f8cecc;gradientColor=#ea6b66;strokeColor=#b85450;" parent="1" vertex="1">
          <mxGeometry x="440" y="480" width="40" height="40" as="geometry" />
        </mxCell>
        <mxCell id="wx2qx-JsSSp1wpRwgON2-113" value="1" style="rounded=0;whiteSpace=wrap;html=1;shadow=1;sketch=1;glass=0;fillColor=#f8cecc;gradientColor=#ea6b66;strokeColor=#b85450;" parent="1" vertex="1">
          <mxGeometry x="480" y="480" width="40" height="40" as="geometry" />
        </mxCell>
        <mxCell id="wx2qx-JsSSp1wpRwgON2-114" value="1" style="rounded=0;whiteSpace=wrap;html=1;shadow=1;sketch=1;glass=0;fillColor=#f8cecc;gradientColor=#ea6b66;strokeColor=#b85450;" parent="1" vertex="1">
          <mxGeometry x="520" y="480" width="40" height="40" as="geometry" />
        </mxCell>
        <mxCell id="wx2qx-JsSSp1wpRwgON2-115" value="0" style="rounded=0;whiteSpace=wrap;html=1;shadow=1;sketch=1;glass=0;fillColor=#f8cecc;gradientColor=#ea6b66;strokeColor=#b85450;" parent="1" vertex="1">
          <mxGeometry x="560" y="400" width="40" height="40" as="geometry" />
        </mxCell>
        <mxCell id="wx2qx-JsSSp1wpRwgON2-116" value="1" style="rounded=0;whiteSpace=wrap;html=1;shadow=1;sketch=1;glass=0;fillColor=#fff2cc;gradientColor=#ffd966;strokeColor=#d6b656;" parent="1" vertex="1">
          <mxGeometry x="560" y="440" width="40" height="40" as="geometry" />
        </mxCell>
        <mxCell id="wx2qx-JsSSp1wpRwgON2-117" value="2" style="rounded=0;whiteSpace=wrap;html=1;shadow=1;sketch=1;glass=0;fillColor=#fff2cc;gradientColor=#ffd966;strokeColor=#d6b656;" parent="1" vertex="1">
          <mxGeometry x="560" y="480" width="40" height="40" as="geometry" />
        </mxCell>
        <mxCell id="wx2qx-JsSSp1wpRwgON2-118" value="1" style="rounded=0;whiteSpace=wrap;html=1;shadow=1;sketch=1;glass=0;fillColor=#f8cecc;gradientColor=#ea6b66;strokeColor=#b85450;" parent="1" vertex="1">
          <mxGeometry x="440" y="520" width="40" height="40" as="geometry" />
        </mxCell>
        <mxCell id="wx2qx-JsSSp1wpRwgON2-119" value="0" style="rounded=0;whiteSpace=wrap;html=1;shadow=1;sketch=1;glass=0;fillColor=#f8cecc;gradientColor=#ea6b66;strokeColor=#b85450;" parent="1" vertex="1">
          <mxGeometry x="480" y="520" width="40" height="40" as="geometry" />
        </mxCell>
        <mxCell id="wx2qx-JsSSp1wpRwgON2-120" value="1" style="rounded=0;whiteSpace=wrap;html=1;shadow=1;sketch=1;glass=0;fillColor=#f8cecc;gradientColor=#ea6b66;strokeColor=#b85450;" parent="1" vertex="1">
          <mxGeometry x="520" y="520" width="40" height="40" as="geometry" />
        </mxCell>
        <mxCell id="wx2qx-JsSSp1wpRwgON2-121" value="2" style="rounded=0;whiteSpace=wrap;html=1;shadow=1;sketch=1;glass=0;fillColor=#f8cecc;gradientColor=#ea6b66;strokeColor=#b85450;" parent="1" vertex="1">
          <mxGeometry x="560" y="520" width="40" height="40" as="geometry" />
        </mxCell>
        <mxCell id="wx2qx-JsSSp1wpRwgON2-122" value="0" style="rounded=0;whiteSpace=wrap;html=1;shadow=1;sketch=1;glass=0;fillColor=#f8cecc;gradientColor=#ea6b66;strokeColor=#b85450;" parent="1" vertex="1">
          <mxGeometry x="600" y="400" width="40" height="40" as="geometry" />
        </mxCell>
        <mxCell id="wx2qx-JsSSp1wpRwgON2-123" value="1" style="rounded=0;whiteSpace=wrap;html=1;shadow=1;sketch=1;glass=0;fillColor=#fff2cc;gradientColor=#ffd966;strokeColor=#d6b656;" parent="1" vertex="1">
          <mxGeometry x="600" y="440" width="40" height="40" as="geometry" />
        </mxCell>
        <mxCell id="wx2qx-JsSSp1wpRwgON2-124" value="2" style="rounded=0;whiteSpace=wrap;html=1;shadow=1;sketch=1;glass=0;fillColor=#f5f5f5;gradientColor=#b3b3b3;strokeColor=#666666;" parent="1" vertex="1">
          <mxGeometry x="600" y="480" width="40" height="40" as="geometry" />
        </mxCell>
        <mxCell id="wx2qx-JsSSp1wpRwgON2-125" value="3" style="rounded=0;whiteSpace=wrap;html=1;shadow=1;sketch=1;glass=0;fillColor=#f8cecc;gradientColor=#ea6b66;strokeColor=#b85450;" parent="1" vertex="1">
          <mxGeometry x="600" y="520" width="40" height="40" as="geometry" />
        </mxCell>
        <mxCell id="wx2qx-JsSSp1wpRwgON2-126" value="0" style="rounded=0;whiteSpace=wrap;html=1;shadow=1;sketch=1;glass=0;fillColor=#d5e8d4;gradientColor=#97d077;strokeColor=#82b366;" parent="1" vertex="1">
          <mxGeometry x="440" y="360" width="40" height="40" as="geometry" />
        </mxCell>
        <mxCell id="wx2qx-JsSSp1wpRwgON2-127" value="0" style="rounded=0;whiteSpace=wrap;html=1;shadow=1;sketch=1;glass=0;fillColor=#d5e8d4;gradientColor=#97d077;strokeColor=#82b366;" parent="1" vertex="1">
          <mxGeometry x="480" y="360" width="40" height="40" as="geometry" />
        </mxCell>
        <mxCell id="wx2qx-JsSSp1wpRwgON2-128" value="0" style="rounded=0;whiteSpace=wrap;html=1;shadow=1;sketch=1;glass=0;fillColor=#d5e8d4;gradientColor=#97d077;strokeColor=#82b366;" parent="1" vertex="1">
          <mxGeometry x="520" y="360" width="40" height="40" as="geometry" />
        </mxCell>
        <mxCell id="wx2qx-JsSSp1wpRwgON2-129" value="0" style="rounded=0;whiteSpace=wrap;html=1;shadow=1;sketch=1;glass=0;fillColor=#d5e8d4;gradientColor=#97d077;strokeColor=#82b366;" parent="1" vertex="1">
          <mxGeometry x="560" y="360" width="40" height="40" as="geometry" />
        </mxCell>
        <mxCell id="wx2qx-JsSSp1wpRwgON2-130" value="0" style="rounded=0;whiteSpace=wrap;html=1;shadow=1;sketch=1;glass=0;fillColor=#d5e8d4;gradientColor=#97d077;strokeColor=#82b366;" parent="1" vertex="1">
          <mxGeometry x="600" y="360" width="40" height="40" as="geometry" />
        </mxCell>
        <mxCell id="wx2qx-JsSSp1wpRwgON2-131" value="0" style="rounded=0;whiteSpace=wrap;html=1;shadow=1;sketch=1;glass=0;fillColor=#d5e8d4;gradientColor=#97d077;strokeColor=#82b366;" parent="1" vertex="1">
          <mxGeometry x="400" y="400" width="40" height="40" as="geometry" />
        </mxCell>
        <mxCell id="wx2qx-JsSSp1wpRwgON2-132" value="0" style="rounded=0;whiteSpace=wrap;html=1;shadow=1;sketch=1;glass=0;fillColor=#d5e8d4;gradientColor=#97d077;strokeColor=#82b366;" parent="1" vertex="1">
          <mxGeometry x="400" y="440" width="40" height="40" as="geometry" />
        </mxCell>
        <mxCell id="wx2qx-JsSSp1wpRwgON2-133" value="0" style="rounded=0;whiteSpace=wrap;html=1;shadow=1;sketch=1;glass=0;fillColor=#d5e8d4;gradientColor=#97d077;strokeColor=#82b366;" parent="1" vertex="1">
          <mxGeometry x="400" y="480" width="40" height="40" as="geometry" />
        </mxCell>
        <mxCell id="wx2qx-JsSSp1wpRwgON2-134" value="0" style="rounded=0;whiteSpace=wrap;html=1;shadow=1;sketch=1;glass=0;fillColor=#d5e8d4;gradientColor=#97d077;strokeColor=#82b366;" parent="1" vertex="1">
          <mxGeometry x="400" y="520" width="40" height="40" as="geometry" />
        </mxCell>
        <mxCell id="wx2qx-JsSSp1wpRwgON2-135" value="0" style="rounded=0;whiteSpace=wrap;html=1;shadow=1;sketch=1;glass=0;fillColor=#d5e8d4;gradientColor=#97d077;strokeColor=#82b366;" parent="1" vertex="1">
          <mxGeometry x="400" y="360" width="40" height="40" as="geometry" />
        </mxCell>
        <mxCell id="wx2qx-JsSSp1wpRwgON2-136" value="1" style="rounded=0;whiteSpace=wrap;html=1;shadow=1;sketch=1;glass=0;fillColor=#f8cecc;gradientColor=#ea6b66;strokeColor=#b85450;" parent="1" vertex="1">
          <mxGeometry x="720" y="400" width="40" height="40" as="geometry" />
        </mxCell>
        <mxCell id="wx2qx-JsSSp1wpRwgON2-137" value="0" style="rounded=0;whiteSpace=wrap;html=1;shadow=1;sketch=1;glass=0;fillColor=#f8cecc;gradientColor=#ea6b66;strokeColor=#b85450;" parent="1" vertex="1">
          <mxGeometry x="760" y="400" width="40" height="40" as="geometry" />
        </mxCell>
        <mxCell id="wx2qx-JsSSp1wpRwgON2-138" value="1" style="rounded=0;whiteSpace=wrap;html=1;shadow=1;sketch=1;glass=0;fillColor=#f8cecc;gradientColor=#ea6b66;strokeColor=#b85450;" parent="1" vertex="1">
          <mxGeometry x="800" y="400" width="40" height="40" as="geometry" />
        </mxCell>
        <mxCell id="wx2qx-JsSSp1wpRwgON2-139" value="1" style="rounded=0;whiteSpace=wrap;html=1;shadow=1;sketch=1;glass=0;fillColor=#f8cecc;gradientColor=#ea6b66;strokeColor=#b85450;" parent="1" vertex="1">
          <mxGeometry x="720" y="440" width="40" height="40" as="geometry" />
        </mxCell>
        <mxCell id="wx2qx-JsSSp1wpRwgON2-140" value="0" style="rounded=0;whiteSpace=wrap;html=1;shadow=1;sketch=1;glass=0;fillColor=#f8cecc;gradientColor=#ea6b66;strokeColor=#b85450;" parent="1" vertex="1">
          <mxGeometry x="760" y="440" width="40" height="40" as="geometry" />
        </mxCell>
        <mxCell id="wx2qx-JsSSp1wpRwgON2-141" value="1" style="rounded=0;whiteSpace=wrap;html=1;shadow=1;sketch=1;glass=0;fillColor=#f8cecc;gradientColor=#ea6b66;strokeColor=#b85450;" parent="1" vertex="1">
          <mxGeometry x="800" y="440" width="40" height="40" as="geometry" />
        </mxCell>
        <mxCell id="wx2qx-JsSSp1wpRwgON2-142" value="1" style="rounded=0;whiteSpace=wrap;html=1;shadow=1;sketch=1;glass=0;fillColor=#f8cecc;gradientColor=#ea6b66;strokeColor=#b85450;" parent="1" vertex="1">
          <mxGeometry x="720" y="480" width="40" height="40" as="geometry" />
        </mxCell>
        <mxCell id="wx2qx-JsSSp1wpRwgON2-143" value="1" style="rounded=0;whiteSpace=wrap;html=1;shadow=1;sketch=1;glass=0;fillColor=#f8cecc;gradientColor=#ea6b66;strokeColor=#b85450;" parent="1" vertex="1">
          <mxGeometry x="760" y="480" width="40" height="40" as="geometry" />
        </mxCell>
        <mxCell id="wx2qx-JsSSp1wpRwgON2-144" value="1" style="rounded=0;whiteSpace=wrap;html=1;shadow=1;sketch=1;glass=0;fillColor=#fff2cc;gradientColor=#ffd966;strokeColor=#d6b656;" parent="1" vertex="1">
          <mxGeometry x="800" y="480" width="40" height="40" as="geometry" />
        </mxCell>
        <mxCell id="wx2qx-JsSSp1wpRwgON2-145" value="0" style="rounded=0;whiteSpace=wrap;html=1;shadow=1;sketch=1;glass=0;fillColor=#f8cecc;gradientColor=#ea6b66;strokeColor=#b85450;" parent="1" vertex="1">
          <mxGeometry x="840" y="400" width="40" height="40" as="geometry" />
        </mxCell>
        <mxCell id="wx2qx-JsSSp1wpRwgON2-146" value="1" style="rounded=0;whiteSpace=wrap;html=1;shadow=1;sketch=1;glass=0;fillColor=#f8cecc;gradientColor=#ea6b66;strokeColor=#b85450;" parent="1" vertex="1">
          <mxGeometry x="840" y="440" width="40" height="40" as="geometry" />
        </mxCell>
        <mxCell id="wx2qx-JsSSp1wpRwgON2-147" value="2" style="rounded=0;whiteSpace=wrap;html=1;shadow=1;sketch=1;glass=0;fillColor=#fff2cc;gradientColor=#ffd966;strokeColor=#d6b656;" parent="1" vertex="1">
          <mxGeometry x="840" y="480" width="40" height="40" as="geometry" />
        </mxCell>
        <mxCell id="wx2qx-JsSSp1wpRwgON2-148" value="1" style="rounded=0;whiteSpace=wrap;html=1;shadow=1;sketch=1;glass=0;fillColor=#f8cecc;gradientColor=#ea6b66;strokeColor=#b85450;" parent="1" vertex="1">
          <mxGeometry x="720" y="520" width="40" height="40" as="geometry" />
        </mxCell>
        <mxCell id="wx2qx-JsSSp1wpRwgON2-149" value="0" style="rounded=0;whiteSpace=wrap;html=1;shadow=1;sketch=1;glass=0;fillColor=#f8cecc;gradientColor=#ea6b66;strokeColor=#b85450;" parent="1" vertex="1">
          <mxGeometry x="760" y="520" width="40" height="40" as="geometry" />
        </mxCell>
        <mxCell id="wx2qx-JsSSp1wpRwgON2-150" value="1" style="rounded=0;whiteSpace=wrap;html=1;shadow=1;sketch=1;glass=0;fillColor=#fff2cc;gradientColor=#ffd966;strokeColor=#d6b656;" parent="1" vertex="1">
          <mxGeometry x="800" y="520" width="40" height="40" as="geometry" />
        </mxCell>
        <mxCell id="wx2qx-JsSSp1wpRwgON2-151" value="2" style="rounded=0;whiteSpace=wrap;html=1;shadow=1;sketch=1;glass=0;fillColor=#f5f5f5;gradientColor=#b3b3b3;strokeColor=#666666;" parent="1" vertex="1">
          <mxGeometry x="840" y="520" width="40" height="40" as="geometry" />
        </mxCell>
        <mxCell id="wx2qx-JsSSp1wpRwgON2-152" value="0" style="rounded=0;whiteSpace=wrap;html=1;shadow=1;sketch=1;glass=0;fillColor=#f8cecc;gradientColor=#ea6b66;strokeColor=#b85450;" parent="1" vertex="1">
          <mxGeometry x="880" y="400" width="40" height="40" as="geometry" />
        </mxCell>
        <mxCell id="wx2qx-JsSSp1wpRwgON2-153" value="1" style="rounded=0;whiteSpace=wrap;html=1;shadow=1;sketch=1;glass=0;fillColor=#f8cecc;gradientColor=#ea6b66;strokeColor=#b85450;" parent="1" vertex="1">
          <mxGeometry x="880" y="440" width="40" height="40" as="geometry" />
        </mxCell>
        <mxCell id="wx2qx-JsSSp1wpRwgON2-154" value="2" style="rounded=0;whiteSpace=wrap;html=1;shadow=1;sketch=1;glass=0;fillColor=#f8cecc;gradientColor=#ea6b66;strokeColor=#b85450;" parent="1" vertex="1">
          <mxGeometry x="880" y="480" width="40" height="40" as="geometry" />
        </mxCell>
        <mxCell id="wx2qx-JsSSp1wpRwgON2-155" value="3" style="rounded=0;whiteSpace=wrap;html=1;shadow=1;sketch=1;glass=0;fillColor=#f8cecc;gradientColor=#ea6b66;strokeColor=#b85450;" parent="1" vertex="1">
          <mxGeometry x="880" y="520" width="40" height="40" as="geometry" />
        </mxCell>
        <mxCell id="wx2qx-JsSSp1wpRwgON2-156" value="0" style="rounded=0;whiteSpace=wrap;html=1;shadow=1;sketch=1;glass=0;fillColor=#d5e8d4;gradientColor=#97d077;strokeColor=#82b366;" parent="1" vertex="1">
          <mxGeometry x="720" y="360" width="40" height="40" as="geometry" />
        </mxCell>
        <mxCell id="wx2qx-JsSSp1wpRwgON2-157" value="0" style="rounded=0;whiteSpace=wrap;html=1;shadow=1;sketch=1;glass=0;fillColor=#d5e8d4;gradientColor=#97d077;strokeColor=#82b366;" parent="1" vertex="1">
          <mxGeometry x="760" y="360" width="40" height="40" as="geometry" />
        </mxCell>
        <mxCell id="wx2qx-JsSSp1wpRwgON2-158" value="0" style="rounded=0;whiteSpace=wrap;html=1;shadow=1;sketch=1;glass=0;fillColor=#d5e8d4;gradientColor=#97d077;strokeColor=#82b366;" parent="1" vertex="1">
          <mxGeometry x="800" y="360" width="40" height="40" as="geometry" />
        </mxCell>
        <mxCell id="wx2qx-JsSSp1wpRwgON2-159" value="0" style="rounded=0;whiteSpace=wrap;html=1;shadow=1;sketch=1;glass=0;fillColor=#d5e8d4;gradientColor=#97d077;strokeColor=#82b366;" parent="1" vertex="1">
          <mxGeometry x="840" y="360" width="40" height="40" as="geometry" />
        </mxCell>
        <mxCell id="wx2qx-JsSSp1wpRwgON2-160" value="0" style="rounded=0;whiteSpace=wrap;html=1;shadow=1;sketch=1;glass=0;fillColor=#d5e8d4;gradientColor=#97d077;strokeColor=#82b366;" parent="1" vertex="1">
          <mxGeometry x="880" y="360" width="40" height="40" as="geometry" />
        </mxCell>
        <mxCell id="wx2qx-JsSSp1wpRwgON2-161" value="0" style="rounded=0;whiteSpace=wrap;html=1;shadow=1;sketch=1;glass=0;fillColor=#d5e8d4;gradientColor=#97d077;strokeColor=#82b366;" parent="1" vertex="1">
          <mxGeometry x="680" y="400" width="40" height="40" as="geometry" />
        </mxCell>
        <mxCell id="wx2qx-JsSSp1wpRwgON2-162" value="0" style="rounded=0;whiteSpace=wrap;html=1;shadow=1;sketch=1;glass=0;fillColor=#d5e8d4;gradientColor=#97d077;strokeColor=#82b366;" parent="1" vertex="1">
          <mxGeometry x="680" y="440" width="40" height="40" as="geometry" />
        </mxCell>
        <mxCell id="wx2qx-JsSSp1wpRwgON2-163" value="0" style="rounded=0;whiteSpace=wrap;html=1;shadow=1;sketch=1;glass=0;fillColor=#d5e8d4;gradientColor=#97d077;strokeColor=#82b366;" parent="1" vertex="1">
          <mxGeometry x="680" y="480" width="40" height="40" as="geometry" />
        </mxCell>
        <mxCell id="wx2qx-JsSSp1wpRwgON2-164" value="0" style="rounded=0;whiteSpace=wrap;html=1;shadow=1;sketch=1;glass=0;fillColor=#d5e8d4;gradientColor=#97d077;strokeColor=#82b366;" parent="1" vertex="1">
          <mxGeometry x="680" y="520" width="40" height="40" as="geometry" />
        </mxCell>
        <mxCell id="wx2qx-JsSSp1wpRwgON2-165" value="0" style="rounded=0;whiteSpace=wrap;html=1;shadow=1;sketch=1;glass=0;fillColor=#d5e8d4;gradientColor=#97d077;strokeColor=#82b366;" parent="1" vertex="1">
          <mxGeometry x="680" y="360" width="40" height="40" as="geometry" />
        </mxCell>
        <mxCell id="wx2qx-JsSSp1wpRwgON2-166" value="1" style="rounded=0;whiteSpace=wrap;html=1;shadow=1;sketch=1;glass=0;fillColor=#f8cecc;gradientColor=#ea6b66;strokeColor=#b85450;" parent="1" vertex="1">
          <mxGeometry x="440" y="720" width="40" height="40" as="geometry" />
        </mxCell>
        <mxCell id="wx2qx-JsSSp1wpRwgON2-167" value="0" style="rounded=0;whiteSpace=wrap;html=1;shadow=1;sketch=1;glass=0;fillColor=#f8cecc;gradientColor=#ea6b66;strokeColor=#b85450;" parent="1" vertex="1">
          <mxGeometry x="480" y="720" width="40" height="40" as="geometry" />
        </mxCell>
        <mxCell id="wx2qx-JsSSp1wpRwgON2-168" value="1" style="rounded=0;whiteSpace=wrap;html=1;shadow=1;sketch=1;glass=0;fillColor=#f8cecc;gradientColor=#ea6b66;strokeColor=#b85450;" parent="1" vertex="1">
          <mxGeometry x="520" y="720" width="40" height="40" as="geometry" />
        </mxCell>
        <mxCell id="wx2qx-JsSSp1wpRwgON2-169" value="1" style="rounded=0;whiteSpace=wrap;html=1;shadow=1;sketch=1;glass=0;fillColor=#f8cecc;gradientColor=#ea6b66;strokeColor=#b85450;" parent="1" vertex="1">
          <mxGeometry x="440" y="760" width="40" height="40" as="geometry" />
        </mxCell>
        <mxCell id="wx2qx-JsSSp1wpRwgON2-170" value="0" style="rounded=0;whiteSpace=wrap;html=1;shadow=1;sketch=1;glass=0;fillColor=#f8cecc;gradientColor=#ea6b66;strokeColor=#b85450;" parent="1" vertex="1">
          <mxGeometry x="480" y="760" width="40" height="40" as="geometry" />
        </mxCell>
        <mxCell id="wx2qx-JsSSp1wpRwgON2-171" value="1" style="rounded=0;whiteSpace=wrap;html=1;shadow=1;sketch=1;glass=0;fillColor=#f8cecc;gradientColor=#ea6b66;strokeColor=#b85450;" parent="1" vertex="1">
          <mxGeometry x="520" y="760" width="40" height="40" as="geometry" />
        </mxCell>
        <mxCell id="wx2qx-JsSSp1wpRwgON2-172" value="1" style="rounded=0;whiteSpace=wrap;html=1;shadow=1;sketch=1;glass=0;fillColor=#f8cecc;gradientColor=#ea6b66;strokeColor=#b85450;" parent="1" vertex="1">
          <mxGeometry x="440" y="800" width="40" height="40" as="geometry" />
        </mxCell>
        <mxCell id="wx2qx-JsSSp1wpRwgON2-173" value="1" style="rounded=0;whiteSpace=wrap;html=1;shadow=1;sketch=1;glass=0;fillColor=#f8cecc;gradientColor=#ea6b66;strokeColor=#b85450;" parent="1" vertex="1">
          <mxGeometry x="480" y="800" width="40" height="40" as="geometry" />
        </mxCell>
        <mxCell id="wx2qx-JsSSp1wpRwgON2-174" value="1" style="rounded=0;whiteSpace=wrap;html=1;shadow=1;sketch=1;glass=0;fillColor=#f8cecc;gradientColor=#ea6b66;strokeColor=#b85450;" parent="1" vertex="1">
          <mxGeometry x="520" y="800" width="40" height="40" as="geometry" />
        </mxCell>
        <mxCell id="wx2qx-JsSSp1wpRwgON2-175" value="0" style="rounded=0;whiteSpace=wrap;html=1;shadow=1;sketch=1;glass=0;fillColor=#f8cecc;gradientColor=#ea6b66;strokeColor=#b85450;" parent="1" vertex="1">
          <mxGeometry x="560" y="720" width="40" height="40" as="geometry" />
        </mxCell>
        <mxCell id="wx2qx-JsSSp1wpRwgON2-176" value="1" style="rounded=0;whiteSpace=wrap;html=1;shadow=1;sketch=1;glass=0;fillColor=#f8cecc;gradientColor=#ea6b66;strokeColor=#b85450;" parent="1" vertex="1">
          <mxGeometry x="560" y="760" width="40" height="40" as="geometry" />
        </mxCell>
        <mxCell id="wx2qx-JsSSp1wpRwgON2-177" value="2" style="rounded=0;whiteSpace=wrap;html=1;shadow=1;sketch=1;glass=0;fillColor=#fff2cc;gradientColor=#ffd966;strokeColor=#d6b656;" parent="1" vertex="1">
          <mxGeometry x="560" y="800" width="40" height="40" as="geometry" />
        </mxCell>
        <mxCell id="wx2qx-JsSSp1wpRwgON2-178" value="1" style="rounded=0;whiteSpace=wrap;html=1;shadow=1;sketch=1;glass=0;fillColor=#f8cecc;gradientColor=#ea6b66;strokeColor=#b85450;" parent="1" vertex="1">
          <mxGeometry x="440" y="840" width="40" height="40" as="geometry" />
        </mxCell>
        <mxCell id="wx2qx-JsSSp1wpRwgON2-179" value="0" style="rounded=0;whiteSpace=wrap;html=1;shadow=1;sketch=1;glass=0;fillColor=#f8cecc;gradientColor=#ea6b66;strokeColor=#b85450;" parent="1" vertex="1">
          <mxGeometry x="480" y="840" width="40" height="40" as="geometry" />
        </mxCell>
        <mxCell id="wx2qx-JsSSp1wpRwgON2-180" value="1" style="rounded=0;whiteSpace=wrap;html=1;shadow=1;sketch=1;glass=0;fillColor=#f8cecc;gradientColor=#ea6b66;strokeColor=#b85450;direction=south;" parent="1" vertex="1">
          <mxGeometry x="520" y="840" width="40" height="40" as="geometry" />
        </mxCell>
        <mxCell id="wx2qx-JsSSp1wpRwgON2-181" value="2" style="rounded=0;whiteSpace=wrap;html=1;shadow=1;sketch=1;glass=0;fillColor=#fff2cc;gradientColor=#ffd966;strokeColor=#d6b656;" parent="1" vertex="1">
          <mxGeometry x="560" y="840" width="40" height="40" as="geometry" />
        </mxCell>
        <mxCell id="wx2qx-JsSSp1wpRwgON2-182" value="0" style="rounded=0;whiteSpace=wrap;html=1;shadow=1;sketch=1;glass=0;fillColor=#f8cecc;gradientColor=#ea6b66;strokeColor=#b85450;" parent="1" vertex="1">
          <mxGeometry x="600" y="720" width="40" height="40" as="geometry" />
        </mxCell>
        <mxCell id="wx2qx-JsSSp1wpRwgON2-183" value="1" style="rounded=0;whiteSpace=wrap;html=1;shadow=1;sketch=1;glass=0;fillColor=#f8cecc;gradientColor=#ea6b66;strokeColor=#b85450;" parent="1" vertex="1">
          <mxGeometry x="600" y="760" width="40" height="40" as="geometry" />
        </mxCell>
        <mxCell id="wx2qx-JsSSp1wpRwgON2-184" value="2" style="rounded=0;whiteSpace=wrap;html=1;shadow=1;sketch=1;glass=0;fillColor=#fff2cc;gradientColor=#ffd966;strokeColor=#d6b656;" parent="1" vertex="1">
          <mxGeometry x="600" y="800" width="40" height="40" as="geometry" />
        </mxCell>
        <mxCell id="wx2qx-JsSSp1wpRwgON2-185" value="3" style="rounded=0;whiteSpace=wrap;html=1;shadow=1;sketch=1;glass=0;fillColor=#f5f5f5;gradientColor=#b3b3b3;strokeColor=#666666;" parent="1" vertex="1">
          <mxGeometry x="600" y="840" width="40" height="40" as="geometry" />
        </mxCell>
        <mxCell id="wx2qx-JsSSp1wpRwgON2-186" value="0" style="rounded=0;whiteSpace=wrap;html=1;shadow=1;sketch=1;glass=0;fillColor=#d5e8d4;gradientColor=#97d077;strokeColor=#82b366;" parent="1" vertex="1">
          <mxGeometry x="440" y="680" width="40" height="40" as="geometry" />
        </mxCell>
        <mxCell id="wx2qx-JsSSp1wpRwgON2-187" value="0" style="rounded=0;whiteSpace=wrap;html=1;shadow=1;sketch=1;glass=0;fillColor=#d5e8d4;gradientColor=#97d077;strokeColor=#82b366;" parent="1" vertex="1">
          <mxGeometry x="480" y="680" width="40" height="40" as="geometry" />
        </mxCell>
        <mxCell id="wx2qx-JsSSp1wpRwgON2-188" value="0" style="rounded=0;whiteSpace=wrap;html=1;shadow=1;sketch=1;glass=0;fillColor=#d5e8d4;gradientColor=#97d077;strokeColor=#82b366;" parent="1" vertex="1">
          <mxGeometry x="520" y="680" width="40" height="40" as="geometry" />
        </mxCell>
        <mxCell id="wx2qx-JsSSp1wpRwgON2-189" value="0" style="rounded=0;whiteSpace=wrap;html=1;shadow=1;sketch=1;glass=0;fillColor=#d5e8d4;gradientColor=#97d077;strokeColor=#82b366;" parent="1" vertex="1">
          <mxGeometry x="560" y="680" width="40" height="40" as="geometry" />
        </mxCell>
        <mxCell id="wx2qx-JsSSp1wpRwgON2-190" value="0" style="rounded=0;whiteSpace=wrap;html=1;shadow=1;sketch=1;glass=0;fillColor=#d5e8d4;gradientColor=#97d077;strokeColor=#82b366;" parent="1" vertex="1">
          <mxGeometry x="600" y="680" width="40" height="40" as="geometry" />
        </mxCell>
        <mxCell id="wx2qx-JsSSp1wpRwgON2-191" value="0" style="rounded=0;whiteSpace=wrap;html=1;shadow=1;sketch=1;glass=0;fillColor=#d5e8d4;gradientColor=#97d077;strokeColor=#82b366;" parent="1" vertex="1">
          <mxGeometry x="400" y="720" width="40" height="40" as="geometry" />
        </mxCell>
        <mxCell id="wx2qx-JsSSp1wpRwgON2-192" value="0" style="rounded=0;whiteSpace=wrap;html=1;shadow=1;sketch=1;glass=0;fillColor=#d5e8d4;gradientColor=#97d077;strokeColor=#82b366;" parent="1" vertex="1">
          <mxGeometry x="400" y="760" width="40" height="40" as="geometry" />
        </mxCell>
        <mxCell id="wx2qx-JsSSp1wpRwgON2-193" value="0" style="rounded=0;whiteSpace=wrap;html=1;shadow=1;sketch=1;glass=0;fillColor=#d5e8d4;gradientColor=#97d077;strokeColor=#82b366;" parent="1" vertex="1">
          <mxGeometry x="400" y="800" width="40" height="40" as="geometry" />
        </mxCell>
        <mxCell id="wx2qx-JsSSp1wpRwgON2-194" value="0" style="rounded=0;whiteSpace=wrap;html=1;shadow=1;sketch=1;glass=0;fillColor=#d5e8d4;gradientColor=#97d077;strokeColor=#82b366;" parent="1" vertex="1">
          <mxGeometry x="400" y="840" width="40" height="40" as="geometry" />
        </mxCell>
        <mxCell id="wx2qx-JsSSp1wpRwgON2-195" value="0" style="rounded=0;whiteSpace=wrap;html=1;shadow=1;sketch=1;glass=0;fillColor=#d5e8d4;gradientColor=#97d077;strokeColor=#82b366;" parent="1" vertex="1">
          <mxGeometry x="400" y="680" width="40" height="40" as="geometry" />
        </mxCell>
        <mxCell id="wx2qx-JsSSp1wpRwgON2-199" value="1" style="rounded=0;whiteSpace=wrap;html=1;shadow=1;sketch=1;glass=0;opacity=0;" parent="1" vertex="1">
          <mxGeometry x="160" y="320" width="40" height="40" as="geometry" />
        </mxCell>
        <mxCell id="wx2qx-JsSSp1wpRwgON2-200" value="2" style="rounded=0;whiteSpace=wrap;html=1;shadow=1;sketch=1;glass=0;opacity=0;" parent="1" vertex="1">
          <mxGeometry x="200" y="320" width="40" height="40" as="geometry" />
        </mxCell>
        <mxCell id="wx2qx-JsSSp1wpRwgON2-201" value="3" style="rounded=0;whiteSpace=wrap;html=1;shadow=1;sketch=1;glass=0;opacity=0;" parent="1" vertex="1">
          <mxGeometry x="240" y="320" width="40" height="40" as="geometry" />
        </mxCell>
        <mxCell id="wx2qx-JsSSp1wpRwgON2-202" value="4" style="rounded=0;whiteSpace=wrap;html=1;shadow=1;sketch=1;glass=0;opacity=0;" parent="1" vertex="1">
          <mxGeometry x="280" y="320" width="40" height="40" as="geometry" />
        </mxCell>
        <mxCell id="wx2qx-JsSSp1wpRwgON2-203" value="5" style="rounded=0;whiteSpace=wrap;html=1;shadow=1;sketch=1;glass=0;opacity=0;" parent="1" vertex="1">
          <mxGeometry x="320" y="320" width="40" height="40" as="geometry" />
        </mxCell>
        <mxCell id="wx2qx-JsSSp1wpRwgON2-204" value="0" style="rounded=0;whiteSpace=wrap;html=1;shadow=1;sketch=1;glass=0;opacity=0;" parent="1" vertex="1">
          <mxGeometry x="120" y="320" width="40" height="40" as="geometry" />
        </mxCell>
        <mxCell id="wx2qx-JsSSp1wpRwgON2-211" value="1" style="rounded=0;whiteSpace=wrap;html=1;shadow=1;sketch=1;glass=0;fillColor=#d5e8d4;gradientColor=#97d077;strokeColor=#82b366;opacity=0;" parent="1" vertex="1">
          <mxGeometry x="80" y="400" width="40" height="40" as="geometry" />
        </mxCell>
        <mxCell id="wx2qx-JsSSp1wpRwgON2-212" value="2" style="rounded=0;whiteSpace=wrap;html=1;shadow=1;sketch=1;glass=0;fillColor=#d5e8d4;gradientColor=#97d077;strokeColor=#82b366;opacity=0;" parent="1" vertex="1">
          <mxGeometry x="80" y="440" width="40" height="40" as="geometry" />
        </mxCell>
        <mxCell id="wx2qx-JsSSp1wpRwgON2-213" value="3" style="rounded=0;whiteSpace=wrap;html=1;shadow=1;sketch=1;glass=0;fillColor=#d5e8d4;gradientColor=#97d077;strokeColor=#82b366;opacity=0;" parent="1" vertex="1">
          <mxGeometry x="80" y="480" width="40" height="40" as="geometry" />
        </mxCell>
        <mxCell id="wx2qx-JsSSp1wpRwgON2-214" value="4" style="rounded=0;whiteSpace=wrap;html=1;shadow=1;sketch=1;glass=0;fillColor=#d5e8d4;gradientColor=#97d077;strokeColor=#82b366;opacity=0;" parent="1" vertex="1">
          <mxGeometry x="80" y="520" width="40" height="40" as="geometry" />
        </mxCell>
        <mxCell id="wx2qx-JsSSp1wpRwgON2-215" value="0" style="rounded=0;whiteSpace=wrap;html=1;shadow=1;sketch=1;glass=0;fillColor=#d5e8d4;gradientColor=#97d077;strokeColor=#82b366;opacity=0;" parent="1" vertex="1">
          <mxGeometry x="80" y="360" width="40" height="40" as="geometry" />
        </mxCell>
        <mxCell id="wx2qx-JsSSp1wpRwgON2-217" value="1" style="rounded=0;whiteSpace=wrap;html=1;shadow=1;sketch=1;glass=0;opacity=0;" parent="1" vertex="1">
          <mxGeometry x="440" y="320" width="40" height="40" as="geometry" />
        </mxCell>
        <mxCell id="wx2qx-JsSSp1wpRwgON2-218" value="2" style="rounded=0;whiteSpace=wrap;html=1;shadow=1;sketch=1;glass=0;opacity=0;" parent="1" vertex="1">
          <mxGeometry x="480" y="320" width="40" height="40" as="geometry" />
        </mxCell>
        <mxCell id="wx2qx-JsSSp1wpRwgON2-219" value="3" style="rounded=0;whiteSpace=wrap;html=1;shadow=1;sketch=1;glass=0;opacity=0;" parent="1" vertex="1">
          <mxGeometry x="520" y="320" width="40" height="40" as="geometry" />
        </mxCell>
        <mxCell id="wx2qx-JsSSp1wpRwgON2-220" value="4" style="rounded=0;whiteSpace=wrap;html=1;shadow=1;sketch=1;glass=0;opacity=0;" parent="1" vertex="1">
          <mxGeometry x="560" y="320" width="40" height="40" as="geometry" />
        </mxCell>
        <mxCell id="wx2qx-JsSSp1wpRwgON2-221" value="5" style="rounded=0;whiteSpace=wrap;html=1;shadow=1;sketch=1;glass=0;opacity=0;" parent="1" vertex="1">
          <mxGeometry x="600" y="320" width="40" height="40" as="geometry" />
        </mxCell>
        <mxCell id="wx2qx-JsSSp1wpRwgON2-222" value="0" style="rounded=0;whiteSpace=wrap;html=1;shadow=1;sketch=1;glass=0;opacity=0;" parent="1" vertex="1">
          <mxGeometry x="400" y="320" width="40" height="40" as="geometry" />
        </mxCell>
        <mxCell id="wx2qx-JsSSp1wpRwgON2-223" value="1" style="rounded=0;whiteSpace=wrap;html=1;shadow=1;sketch=1;glass=0;opacity=0;" parent="1" vertex="1">
          <mxGeometry x="720" y="320" width="40" height="40" as="geometry" />
        </mxCell>
        <mxCell id="wx2qx-JsSSp1wpRwgON2-224" value="2" style="rounded=0;whiteSpace=wrap;html=1;shadow=1;sketch=1;glass=0;opacity=0;" parent="1" vertex="1">
          <mxGeometry x="760" y="320" width="40" height="40" as="geometry" />
        </mxCell>
        <mxCell id="wx2qx-JsSSp1wpRwgON2-225" value="3" style="rounded=0;whiteSpace=wrap;html=1;shadow=1;sketch=1;glass=0;opacity=0;" parent="1" vertex="1">
          <mxGeometry x="800" y="320" width="40" height="40" as="geometry" />
        </mxCell>
        <mxCell id="wx2qx-JsSSp1wpRwgON2-226" value="4" style="rounded=0;whiteSpace=wrap;html=1;shadow=1;sketch=1;glass=0;opacity=0;" parent="1" vertex="1">
          <mxGeometry x="840" y="320" width="40" height="40" as="geometry" />
        </mxCell>
        <mxCell id="wx2qx-JsSSp1wpRwgON2-227" value="5" style="rounded=0;whiteSpace=wrap;html=1;shadow=1;sketch=1;glass=0;opacity=0;" parent="1" vertex="1">
          <mxGeometry x="880" y="320" width="40" height="40" as="geometry" />
        </mxCell>
        <mxCell id="wx2qx-JsSSp1wpRwgON2-228" value="0" style="rounded=0;whiteSpace=wrap;html=1;shadow=1;sketch=1;glass=0;opacity=0;" parent="1" vertex="1">
          <mxGeometry x="680" y="320" width="40" height="40" as="geometry" />
        </mxCell>
        <mxCell id="wx2qx-JsSSp1wpRwgON2-229" value="1" style="rounded=0;whiteSpace=wrap;html=1;shadow=1;sketch=1;glass=0;opacity=0;" parent="1" vertex="1">
          <mxGeometry x="440" y="640" width="40" height="40" as="geometry" />
        </mxCell>
        <mxCell id="wx2qx-JsSSp1wpRwgON2-230" value="2" style="rounded=0;whiteSpace=wrap;html=1;shadow=1;sketch=1;glass=0;opacity=0;" parent="1" vertex="1">
          <mxGeometry x="480" y="640" width="40" height="40" as="geometry" />
        </mxCell>
        <mxCell id="wx2qx-JsSSp1wpRwgON2-231" value="3" style="rounded=0;whiteSpace=wrap;html=1;shadow=1;sketch=1;glass=0;opacity=0;" parent="1" vertex="1">
          <mxGeometry x="520" y="640" width="40" height="40" as="geometry" />
        </mxCell>
        <mxCell id="wx2qx-JsSSp1wpRwgON2-232" value="4" style="rounded=0;whiteSpace=wrap;html=1;shadow=1;sketch=1;glass=0;opacity=0;" parent="1" vertex="1">
          <mxGeometry x="560" y="640" width="40" height="40" as="geometry" />
        </mxCell>
        <mxCell id="wx2qx-JsSSp1wpRwgON2-233" value="5" style="rounded=0;whiteSpace=wrap;html=1;shadow=1;sketch=1;glass=0;opacity=0;" parent="1" vertex="1">
          <mxGeometry x="600" y="640" width="40" height="40" as="geometry" />
        </mxCell>
        <mxCell id="wx2qx-JsSSp1wpRwgON2-234" value="0" style="rounded=0;whiteSpace=wrap;html=1;shadow=1;sketch=1;glass=0;opacity=0;" parent="1" vertex="1">
          <mxGeometry x="400" y="640" width="40" height="40" as="geometry" />
        </mxCell>
        <mxCell id="wx2qx-JsSSp1wpRwgON2-235" value="1" style="rounded=0;whiteSpace=wrap;html=1;shadow=1;sketch=1;glass=0;fillColor=#d5e8d4;gradientColor=#97d077;strokeColor=#82b366;opacity=0;" parent="1" vertex="1">
          <mxGeometry x="360" y="720" width="40" height="40" as="geometry" />
        </mxCell>
        <mxCell id="wx2qx-JsSSp1wpRwgON2-236" value="2" style="rounded=0;whiteSpace=wrap;html=1;shadow=1;sketch=1;glass=0;fillColor=#d5e8d4;gradientColor=#97d077;strokeColor=#82b366;opacity=0;" parent="1" vertex="1">
          <mxGeometry x="360" y="760" width="40" height="40" as="geometry" />
        </mxCell>
        <mxCell id="wx2qx-JsSSp1wpRwgON2-237" value="3" style="rounded=0;whiteSpace=wrap;html=1;shadow=1;sketch=1;glass=0;fillColor=#d5e8d4;gradientColor=#97d077;strokeColor=#82b366;opacity=0;" parent="1" vertex="1">
          <mxGeometry x="360" y="800" width="40" height="40" as="geometry" />
        </mxCell>
        <mxCell id="wx2qx-JsSSp1wpRwgON2-238" value="4" style="rounded=0;whiteSpace=wrap;html=1;shadow=1;sketch=1;glass=0;fillColor=#d5e8d4;gradientColor=#97d077;strokeColor=#82b366;opacity=0;" parent="1" vertex="1">
          <mxGeometry x="360" y="840" width="40" height="40" as="geometry" />
        </mxCell>
        <mxCell id="wx2qx-JsSSp1wpRwgON2-239" value="0" style="rounded=0;whiteSpace=wrap;html=1;shadow=1;sketch=1;glass=0;fillColor=#d5e8d4;gradientColor=#97d077;strokeColor=#82b366;opacity=0;" parent="1" vertex="1">
          <mxGeometry x="360" y="680" width="40" height="40" as="geometry" />
        </mxCell>
        <mxCell id="wx2qx-JsSSp1wpRwgON2-240" value="" style="whiteSpace=wrap;html=1;aspect=fixed;rounded=0;shadow=0;glass=0;sketch=0;strokeColor=#6c8ebf;strokeWidth=4;opacity=40;fillColor=#dae8fc;" parent="1" vertex="1">
          <mxGeometry x="440" y="-200" width="160" height="160" as="geometry" />
        </mxCell>
        <mxCell id="wx2qx-JsSSp1wpRwgON2-241" value="" style="whiteSpace=wrap;html=1;aspect=fixed;rounded=0;shadow=0;glass=0;sketch=0;strokeColor=#82b366;strokeWidth=4;opacity=40;fillColor=#d5e8d4;" parent="1" vertex="1">
          <mxGeometry x="560" y="-120" width="80" height="80" as="geometry" />
        </mxCell>
        <mxCell id="wx2qx-JsSSp1wpRwgON2-242" value="" style="whiteSpace=wrap;html=1;aspect=fixed;rounded=0;shadow=0;glass=0;sketch=0;strokeColor=#d79b00;strokeWidth=4;opacity=40;fillColor=#ffe6cc;" parent="1" vertex="1">
          <mxGeometry x="480" y="-120" width="120" height="120" as="geometry" />
        </mxCell>
        <mxCell id="wx2qx-JsSSp1wpRwgON2-243" value="" style="whiteSpace=wrap;html=1;aspect=fixed;rounded=0;shadow=0;glass=0;sketch=0;strokeColor=#000000;strokeWidth=4;gradientColor=none;opacity=40;" parent="1" vertex="1">
          <mxGeometry x="560" y="-80" width="80" height="80" as="geometry" />
        </mxCell>
        <mxCell id="wx2qx-JsSSp1wpRwgON2-244" value="&lt;b&gt;4&lt;/b&gt;" style="rounded=0;whiteSpace=wrap;html=1;shadow=0;glass=0;sketch=0;strokeColor=#000000;strokeWidth=1;gradientColor=none;opacity=0;" parent="1" vertex="1">
          <mxGeometry x="560" y="-80" width="40" height="40" as="geometry" />
        </mxCell>
        <mxCell id="wx2qx-JsSSp1wpRwgON2-245" value="&lt;b&gt;2&lt;/b&gt;" style="rounded=0;whiteSpace=wrap;html=1;shadow=0;glass=0;sketch=0;strokeColor=#000000;strokeWidth=1;gradientColor=none;opacity=0;" parent="1" vertex="1">
          <mxGeometry x="600" y="-80" width="40" height="40" as="geometry" />
        </mxCell>
        <mxCell id="wx2qx-JsSSp1wpRwgON2-246" value="&lt;b&gt;3&lt;/b&gt;" style="rounded=0;whiteSpace=wrap;html=1;shadow=0;glass=0;sketch=0;strokeColor=#000000;strokeWidth=1;gradientColor=none;opacity=0;" parent="1" vertex="1">
          <mxGeometry x="560" y="-40" width="40" height="40" as="geometry" />
        </mxCell>
        <mxCell id="wx2qx-JsSSp1wpRwgON2-247" value="&lt;font color=&quot;#3399ff&quot; face=&quot;Comic Sans MS&quot; size=&quot;1&quot;&gt;&lt;b style=&quot;font-size: 15px&quot;&gt;3&lt;/b&gt;&lt;/font&gt;" style="rounded=0;whiteSpace=wrap;html=1;shadow=0;glass=0;sketch=0;strokeColor=#000000;strokeWidth=1;gradientColor=none;opacity=0;" parent="1" vertex="1">
          <mxGeometry x="600" y="-40" width="40" height="40" as="geometry" />
        </mxCell>
      </root>
    </mxGraphModel>
  </diagram>
</mxfile>
